<svg width="1512" height="655" viewBox="0 0 1512 655" fill="none" xmlns="http://www.w3.org/2000/svg">
<path d="M-2.07716e-05 651.999C65.5578 651.999 131.229 661.03 189.328 624.839C225.494 602.311 248.912 567.186 269.214 530.578C294.822 484.401 312.293 430.868 352.454 396.377C392.616 361.885 442.288 341.052 491.455 329.915C551.035 316.42 607.5 356.011 647.711 396.057C697.129 445.274 731.884 512.083 732.709 582.981C732.983 606.536 715.014 632.588 689.89 635.543C646.485 640.649 640.153 510.845 639.083 485.525C637.678 452.272 635.744 416.385 646.113 384.235C667.716 317.25 771.228 293.24 786.96 289.575C802.692 285.91 909.843 258.457 1013.67 241.326C1117.51 224.195 1237.46 234.09 1341.05 200.427C1393.56 183.361 1448.45 151.572 1482.44 107.284C1508.5 73.3273 1508.47 42.582 1512 1.99998" stroke="url(#paint0_linear_2697_11367)" stroke-width="4" stroke-linecap="round" stroke-dasharray="12 12"/>
<defs>
<linearGradient id="paint0_linear_2697_11367" x1="1511.55" y1="106.87" x2="50.653" y2="653.042" gradientUnits="userSpaceOnUse">
<stop stop-color="#37BD6B" stop-opacity="0.42"/>
<stop offset="0.563099" stop-color="#37BD6B" stop-opacity="0.11"/>
<stop offset="0.887261" stop-color="#37BD6B" stop-opacity="0.6"/>
</linearGradient>
</defs>
</svg>
