<?xml version="1.0" encoding="UTF-8"?>
<svg version="1.1" xmlns="http://www.w3.org/2000/svg" width="68" height="40">
<path d="M0 0 C3.71205004 0.16726742 6.27955142 0.45217003 9.62890625 2.1640625 C12.61346375 5.66025842 14.1845785 9.46010784 15.81640625 13.7265625 C17.56034629 11.58627245 18.77362203 9.84880314 19.69140625 7.2265625 C21.18408871 3.90949037 22.70273677 2.59476419 25.81640625 0.7265625 C29.31640625 0.1640625 29.31640625 0.1640625 32.81640625 0.7265625 C37.93753 4.47372622 40.8368034 10.2378204 43.81640625 15.7265625 C44.38230469 16.76683594 44.94820312 17.80710937 45.53125 18.87890625 C49.16121737 26.06197109 50.68647859 31.68644958 49.81640625 39.7265625 C45.03185868 41.05151414 40.56910587 41.31079571 35.81640625 39.7265625 C34.2109375 37.29296875 34.2109375 37.29296875 32.62890625 34.2890625 C32.09910156 33.30035156 31.56929687 32.31164062 31.0234375 31.29296875 C29.81640625 28.7265625 29.81640625 28.7265625 29.81640625 26.7265625 C26.86795643 29.16223844 26.46257001 31.03419816 25.81640625 34.7265625 C25.15640625 35.7165625 24.49640625 36.7065625 23.81640625 37.7265625 C23.81640625 38.3865625 23.81640625 39.0465625 23.81640625 39.7265625 C19.4399245 41.12703666 14.8974961 41.40151056 10.50390625 39.9765625 C8.39064328 38.41118253 7.82664855 37.15114401 6.81640625 34.7265625 C6.01203125 33.1178125 6.01203125 33.1178125 5.19140625 31.4765625 C4.73765625 30.5690625 4.28390625 29.6615625 3.81640625 28.7265625 C1.94282343 31.04623647 0.63379444 33.12354469 -0.62109375 35.8515625 C-2.18359375 38.7265625 -2.18359375 38.7265625 -3.93359375 40.1015625 C-7.1931278 41.00698862 -9.81828894 41.08713087 -13.18359375 40.7265625 C-15.62109375 39.1640625 -15.62109375 39.1640625 -17.18359375 36.7265625 C-17.65320017 32.34356924 -17.37861548 29.5068777 -15.18359375 25.7265625 C-14.9 24.83066406 -14.61640625 23.93476563 -14.32421875 23.01171875 C-13.11271107 19.52241068 -11.57589908 16.46790851 -9.80859375 13.2265625 C-8.93074219 11.60234375 -8.93074219 11.60234375 -8.03515625 9.9453125 C-2.86198452 0.95228823 -2.86198452 0.95228823 0 0 Z M2.81640625 23.7265625 C3.81640625 25.7265625 3.81640625 25.7265625 3.81640625 25.7265625 Z M28.81640625 23.7265625 C29.81640625 25.7265625 29.81640625 25.7265625 29.81640625 25.7265625 Z " fill="#52B5B6" transform="translate(17.18359375,-0.7265625)"/>
<path d="M0 0 C3.90573092 0.17599481 6.30201488 0.43106107 9.75390625 2.4140625 C11.87411783 4.79126942 12.89070256 6.69698678 13.81640625 9.7265625 C13.15640625 9.7265625 12.49640625 9.7265625 11.81640625 9.7265625 C11.48640625 9.0665625 11.15640625 8.4065625 10.81640625 7.7265625 C10.5740625 8.355625 10.33171875 8.9846875 10.08203125 9.6328125 C8.42414539 13.86679792 6.73420533 18.00583387 4.62890625 22.0390625 C3.50157118 24.21973768 2.80172762 25.79995566 2.31640625 28.2265625 C1.55888774 32.01415505 0.02425039 35.55147235 -2.18359375 38.7265625 C-5.85249754 41.05045064 -8.87408623 41.18829545 -13.18359375 40.7265625 C-15.62109375 39.1640625 -15.62109375 39.1640625 -17.18359375 36.7265625 C-17.65320017 32.34356924 -17.37861548 29.5068777 -15.18359375 25.7265625 C-14.9 24.83066406 -14.61640625 23.93476563 -14.32421875 23.01171875 C-13.11271107 19.52241068 -11.57589908 16.46790851 -9.80859375 13.2265625 C-8.93074219 11.60234375 -8.93074219 11.60234375 -8.03515625 9.9453125 C-2.86198452 0.95228823 -2.86198452 0.95228823 0 0 Z " fill="#C5CB1B" transform="translate(17.18359375,-0.7265625)"/>
<path d="M0 0 C4.8771911 3.90175288 6.57323899 8.31106087 8.796875 14.07421875 C9.80248505 16.51967955 10.85878958 18.50181566 12.3125 20.6875 C14.48072571 24.94364676 14.38194212 28.32120907 14 33 C9.5140157 34.22971061 5.18696973 34.70928748 0.6875 33.25 C-1.39245344 31.70929375 -1.90484378 30.33550361 -3 28 C-3.54720703 26.91912109 -3.54720703 26.91912109 -4.10546875 25.81640625 C-4.64107422 24.70072266 -4.64107422 24.70072266 -5.1875 23.5625 C-5.55230469 22.82128906 -5.91710937 22.08007812 -6.29296875 21.31640625 C-7.41946443 17.62573257 -6.55372679 15.09248799 -4.84375 11.71875 C-3.94791667 10.23958333 -3.05208333 8.76041667 -2.15625 7.28125 C-0.92264714 4.84738489 -0.4160801 2.68560794 0 0 Z " fill="#8F569B" transform="translate(27,6)"/>
<path d="M0 0 C2.63016161 2.1727422 4.47336894 3.94673788 6 7 C5.34 7 4.68 7 4 7 C3.773125 7.78375 3.54625 8.5675 3.3125 9.375 C1.86674626 13.36803414 0.01366367 16.98585245 -1.9765625 20.73046875 C-3.20554109 23.04086286 -3.20554109 23.04086286 -3 26 C-3.7115625 26.680625 -3.7115625 26.680625 -4.4375 27.375 C-6.44583349 29.46366683 -6.61869524 31.1783448 -7 34 C-10.14886376 32.42556812 -11.06759276 29.29529558 -12.5625 26.25 C-12.87896484 25.62867187 -13.19542969 25.00734375 -13.52148438 24.3671875 C-17.65955362 16.03833475 -17.65955362 16.03833475 -16.1796875 11.46484375 C-12.35174168 4.04963133 -9.30617044 -1.49563453 0 0 Z " fill="#4DC4EC" transform="translate(50,0)"/>
<path d="M0 0 C3.34161451 0.58140569 4.98825235 1.88147802 7.22265625 4.38671875 C8.53515625 7.13671875 8.53515625 7.13671875 9.22265625 9.38671875 C8.56265625 9.38671875 7.90265625 9.38671875 7.22265625 9.38671875 C6.89265625 8.72671875 6.56265625 8.06671875 6.22265625 7.38671875 C5.9803125 8.05058594 5.73796875 8.71445313 5.48828125 9.3984375 C3.61111966 14.34403631 1.88943532 18.45802688 -1.77734375 22.38671875 C-2.78243176 20.59790139 -3.78127111 18.80557179 -4.77734375 17.01171875 C-5.61265625 15.51511719 -5.61265625 15.51511719 -6.46484375 13.98828125 C-7.77734375 11.38671875 -7.77734375 11.38671875 -7.77734375 9.38671875 C-9.09734375 9.38671875 -10.41734375 9.38671875 -11.77734375 9.38671875 C-9.25613407 2.40490732 -7.70858343 -0.36349418 0 0 Z " fill="#DB6E1F" transform="translate(21.77734375,-0.38671875)"/>
<path d="M0 0 C1.32 0.66 2.64 1.32 4 2 C4 2.66 4 3.32 4 4 C3.34 4 2.68 4 2 4 C2.433125 4.84304687 2.86625 5.68609375 3.3125 6.5546875 C3.869375 7.65039062 4.42625 8.74609375 5 9.875 C5.556875 10.96554688 6.11375 12.05609375 6.6875 13.1796875 C8 16 8 16 8 18 C6.35 18 4.7 18 3 18 C1.47700477 20.93720508 0.19899698 23.9168649 -1 27 C-1.99 27 -2.98 27 -4 27 C-6.6993059 22.38868575 -7.44343446 19.32121354 -7 14 C-6.07535013 11.37913585 -4.83400574 8.99615912 -3.5 6.5625 C-3.16613281 5.92634766 -2.83226562 5.29019531 -2.48828125 4.63476562 C-1.67159878 3.08306893 -0.8375666 1.54052429 0 0 Z " fill="#B9D8D5" transform="translate(54,7)"/>
<path d="M0 0 C2.3125 2.4375 2.3125 2.4375 4 5 C4.66 5.33 5.32 5.66 6 6 C4.55214724 11.55010225 4.55214724 11.55010225 2.3125 13.375 C-0.97194549 14.26268797 -3.61331061 14.36285958 -7 14 C-9.4375 12.4375 -9.4375 12.4375 -11 10 C-11.5 6.4375 -11.5 6.4375 -11 3 C-8.0106124 -0.70684062 -4.50859867 -0.64408552 0 0 Z " fill="#62B340" transform="translate(11,26)"/>
<path d="M0 0 C4.875 4.625 4.875 4.625 6 8 C5.74673108 14.33172311 3.23549839 18.73485317 0 24 C-1.65 24 -3.3 24 -5 24 C-6.87197493 20.14593396 -7.12778464 18.1105593 -6 14 C-4.82537998 11.68250644 -3.50173115 9.50285841 -2.15625 7.28125 C-0.92264714 4.84738489 -0.4160801 2.68560794 0 0 Z " fill="#E6A6BF" transform="translate(27,6)"/>
<path d="M0 0 C3.75 0.375 3.75 0.375 6.625 2.75 C8.75 5.375 8.75 5.375 9.75 7.375 C9.09 7.375 8.43 7.375 7.75 7.375 C7.316875 8.8290625 7.316875 8.8290625 6.875 10.3125 C5.75 13.375 5.75 13.375 3.75 14.375 C-2.54084967 14.83251634 -2.54084967 14.83251634 -5.1875 13.125 C-6.25 11.375 -6.25 11.375 -6.25 7.375 C-7.24 7.045 -8.23 6.715 -9.25 6.375 C-3.25 0.375 -3.25 0.375 0 0 Z " fill="#06569F" transform="translate(46.25,-0.375)"/>
<path d="M0 0 C2.01822917 0.26041667 4.03645833 0.52083333 6.0546875 0.78125 C8.00498344 1.0372485 8.00498344 1.0372485 10 1 C8.88243734 4.86848614 7.97126708 7.28922757 5 10 C4.16121545 8.71186658 3.32913217 7.41936744 2.5 6.125 C2.0359375 5.40570312 1.571875 4.68640625 1.09375 3.9453125 C0 2 0 2 0 0 Z " fill="#D39E2B" transform="translate(15,12)"/>
<path d="M0 0 C1.95582488 2.93373731 3.56224304 5.78216298 5 9 C4.67 9.66 4.34 10.32 4 11 C1.36 11 -1.28 11 -4 11 C-2.7874262 7.27566618 -1.49140021 3.62197194 0 0 Z " fill="#758CC4" transform="translate(33,16)"/>
<path d="M0 0 C0.99 0 1.98 0 3 0 C4.98 4.29 6.96 8.58 9 13 C8.01 13.99 7.02 14.98 6 16 C3.3125 15.6875 3.3125 15.6875 1 15 C1 14.67 1 14.34 1 14 C2.65 14 4.3 14 6 14 C5.566875 13.15695313 5.13375 12.31390625 4.6875 11.4453125 C3.8521875 9.80175781 3.8521875 9.80175781 3 8.125 C2.1646875 6.48917969 2.1646875 6.48917969 1.3125 4.8203125 C0 2 0 2 0 0 Z " fill="#819391" transform="translate(56,11)"/>
<path d="M0 0 C2.97 0 5.94 0 9 0 C7.90931332 3.77545388 7.0916909 6.47043472 4 9 C0 2.25 0 2.25 0 0 Z " fill="#0EBCEF" transform="translate(42,13)"/>
<path d="M0 0 C0 1.32 0 2.64 0 4 C-0.99 4.66 -1.98 5.32 -3 6 C-3.99 5.67 -4.98 5.34 -6 5 C-3.74193548 0 -3.74193548 0 0 0 Z " fill="#3998B1" transform="translate(40,7)"/>
<path d="" fill="#000000" transform="translate(0,0)"/>
<path d="" fill="#000000" transform="translate(0,0)"/>
<path d="" fill="#000000" transform="translate(0,0)"/>
<path d="" fill="#000000" transform="translate(0,0)"/>
<path d="" fill="#000000" transform="translate(0,0)"/>
<path d="" fill="#000000" transform="translate(0,0)"/>
<path d="" fill="#000000" transform="translate(0,0)"/>
<path d="" fill="#000000" transform="translate(0,0)"/>
<path d="" fill="#000000" transform="translate(0,0)"/>
<path d="" fill="#000000" transform="translate(0,0)"/>
<path d="" fill="#000000" transform="translate(0,0)"/>
<path d="" fill="#000000" transform="translate(0,0)"/>
<path d="" fill="#000000" transform="translate(0,0)"/>
<path d="" fill="#000000" transform="translate(0,0)"/>
<path d="" fill="#000000" transform="translate(0,0)"/>
<path d="" fill="#000000" transform="translate(0,0)"/>
<path d="" fill="#000000" transform="translate(0,0)"/>
<path d="" fill="#000000" transform="translate(0,0)"/>
<path d="" fill="#000000" transform="translate(0,0)"/>
<path d="" fill="#000000" transform="translate(0,0)"/>
<path d="" fill="#000000" transform="translate(0,0)"/>
<path d="" fill="#000000" transform="translate(0,0)"/>
<path d="" fill="#000000" transform="translate(0,0)"/>
</svg>
