<svg xmlns="http://www.w3.org/2000/svg" version="1.1" xmlns:xlink="http://www.w3.org/1999/xlink" xmlns:svgjs="http://svgjs.dev/svgjs" viewBox="0 0 800 400"><path d="M0.6371325254440308,340.9495849609375C19.271353610157966,339.41638961791995,87.39891223132611,357.85540374755857,129.1490020751953,330.3758239746094C170.89909191906452,302.8962442016602,247.9980738067627,163.11111358642577,288.56878662109375,151.43524169921875C329.1394994354248,139.75936981201173,391.8459910583496,226.14700775146486,408.947021484375,249.85256958007812C426.0480519104004,273.5581314086914,412.9935269165039,303.7177531433106,406.5069274902344,314.921875C400.0203280639648,326.1259968566894,375.0621612548828,338.6803109741211,364.21185302734375,327.12237548828125C353.3615447998047,315.5644400024414,324.836802520752,265.8758852767944,331.6772155761719,235.21197509765625C338.5176286315918,204.54806491851807,384.1434129333496,134.2813542175293,411.3871154785156,115.64713287353516C438.6308180236816,97.01291152954101,487.01389907836915,108.11536159515381,519.5648193359375,106.70010375976562C552.1157395935059,105.28484592437744,609.2222045898437,107.30199184417725,635.876220703125,105.88673400878906C662.5302368164063,104.47147617340087,686.4025305175782,101.06753868103027,703.3856201171875,96.93970489501953C720.3687097167968,92.81187110900879,741.9147955322265,83.31582004547118,753.0009765625,77.41891479492188C764.0871575927735,71.52200954437257,773.9451412963867,62.99386505126953,779.842041015625,56.271392822265625C785.7389407348633,49.54892059326172,790.8387326049805,38.01538598060608,793.6692504882812,31.057037353515625C796.499768371582,24.09868872642517,798.5372814941406,11.585048685073852,799.3628540039062,8.282781600952148" fill="none" stroke-width="3" stroke="hsl(150, 51%, 42%)" stroke-linecap="round" stroke-dasharray="14 10" stroke-opacity="0.69" transform="matrix(1.059217306037722,0,0,1.059217306037722,12.017079114118985,-17.149064995885396)"></path><defs><linearGradient id="SvgjsLinearGradient1000"><stop stop-color="hsl(37, 99%, 67%)" offset="0"></stop><stop stop-color="hsl(316, 73%, 52%)" offset="1"></stop></linearGradient></defs></svg>